<svg xmlns="http://www.w3.org/2000/svg" viewBox="0 0 800 800" preserveAspectRatio="xMidYMid slice"><rect width="800" height="800" fill="#f3e3c3"/><rect x="0" y="0" width="24" height="800" fill="#c8962e"/><rect x="24" y="0" width="40" height="800" fill="#7a2331"/><rect x="64" y="0" width="8" height="800" fill="#7a2331"/><rect x="72" y="0" width="24" height="800" fill="#7a2331"/><rect x="96" y="0" width="60" height="800" fill="#c8962e"/><rect x="156" y="0" width="8" height="800" fill="#7a2331"/><rect x="164" y="0" width="40" height="800" fill="#7a2331"/><rect x="204" y="0" width="8" height="800" fill="#c8962e"/><rect x="212" y="0" width="8" height="800" fill="#7a2331"/><rect x="220" y="0" width="8" height="800" fill="#7a2331"/><rect x="228" y="0" width="14" height="800" fill="#7a2331"/><rect x="242" y="0" width="60" height="800" fill="#7a2331"/><rect x="302" y="0" width="8" height="800" fill="#c8962e"/><rect x="310" y="0" width="8" height="800" fill="#c8962e"/><rect x="318" y="0" width="24" height="800" fill="#7a2331"/><rect x="342" y="0" width="14" height="800" fill="#7a2331"/><rect x="356" y="0" width="60" height="800" fill="#f3e3c3"/><rect x="416" y="0" width="60" height="800" fill="#c8962e"/><rect x="476" y="0" width="8" height="800" fill="#c8962e"/><rect x="484" y="0" width="24" height="800" fill="#7a2331"/><rect x="508" y="0" width="60" height="800" fill="#7a2331"/><rect x="568" y="0" width="60" height="800" fill="#7a2331"/><rect x="628" y="0" width="60" height="800" fill="#c8962e"/><rect x="688" y="0" width="40" height="800" fill="#7a2331"/><rect x="728" y="0" width="24" height="800" fill="#7a2331"/><rect x="752" y="0" width="60" height="800" fill="#7a2331"/><defs><linearGradient id="g" x1="0" y1="0" x2="1" y2="1"><stop offset="0" stop-color="#fff" stop-opacity=".18"/><stop offset=".5" stop-color="#000" stop-opacity=".0"/><stop offset="1" stop-color="#000" stop-opacity=".22"/></linearGradient></defs><rect width="800" height="800" fill="url(#g)"/></svg>